<svg width="540" height="360" viewBox="0 0 540 360" fill="none" xmlns="http://www.w3.org/2000/svg">
<circle cx="180" cy="90" r="90" transform="rotate(-180 180 90)" fill="#7bd0f7"/>
<path d="M180 360C156.362 360 132.956 355.344 111.117 346.298C89.2783 337.252 69.4352 323.994 52.7207 307.279C36.0062 290.565 22.7474 270.722 13.7016 248.883C4.65575 227.044 -6.51681e-05 203.638 -6.10352e-05 180C-5.69022e-05 156.362 4.65578 132.956 13.7016 111.117C22.7475 89.2783 36.0062 69.4353 52.7208 52.7207C69.4353 36.0062 89.2784 22.7475 111.117 13.7017C132.956 4.65582 156.362 -7.9841e-06 180 0L180 180C151.274 182.071 137.045 187.801 115.5 207.5C105.619 218.175 101.128 225.288 95 240C90.6479 255.195 89.5881 263.525 90.5 278C93.2138 303.924 100.744 317.819 121 337.5C141.436 352.882 153.7 358.412 180 360Z" fill="#7bd0f7"/>
<circle cx="179.5" cy="86.5" r="22.5" transform="rotate(-180 179.5 86.5)" fill="#000000"/>
<circle cx="450" cy="90" r="90" transform="rotate(-180 450 90)" fill="#7bd0f7"/>
<path d="M450 360C426.362 360 402.956 355.344 381.117 346.298C359.278 337.252 339.435 323.994 322.721 307.279C306.006 290.565 292.747 270.722 283.702 248.883C274.656 227.044 270 203.638 270 180C270 156.362 274.656 132.956 283.702 111.117C292.747 89.2783 306.006 69.4353 322.721 52.7207C339.435 36.0062 359.278 22.7475 381.117 13.7017C402.956 4.65582 426.362 -7.9841e-06 450 0L450 180C421.274 182.071 407.045 187.801 385.5 207.5C375.619 218.175 371.128 225.288 365 240C360.648 255.195 359.588 263.525 360.5 278C363.214 303.924 370.744 317.819 391 337.5C411.436 352.882 423.7 358.412 450 360Z" fill="#7bd0f7"/>
<circle cx="449.5" cy="86.5" r="22.5" transform="rotate(-180 449.5 86.5)" fill="#000000"/>
</svg>
