<svg width="540" height="360" viewBox="0 0 540 360" fill="none" xmlns="http://www.w3.org/2000/svg">
<circle cx="90" cy="270" r="90" fill="#eeb5eb"/>
<path d="M90.0001 0C113.638 2.8188e-07 137.044 4.65584 158.883 13.7017C180.722 22.7475 200.565 36.0062 217.279 52.7208C233.994 69.4353 247.253 89.2784 256.298 111.117C265.344 132.956 270 156.362 270 180C270 203.638 265.344 227.044 256.298 248.883C247.253 270.722 233.994 290.565 217.279 307.279C200.565 323.994 180.722 337.252 158.883 346.298C137.044 355.344 113.638 360 90 360L90.0001 180C118.726 177.929 132.955 172.199 154.5 152.5C164.381 141.825 168.872 134.712 175 120C179.352 104.805 180.412 96.4747 179.5 82C176.786 56.0756 169.256 42.1808 149 22.5C128.564 7.11797 116.3 1.58802 90.0001 0Z" fill="#eeb5eb"/>
<circle cx="90.5" cy="273.5" r="22.5" fill="white"/>
<circle cx="360" cy="270" r="90" fill="#eeb5eb"/>
<path d="M360 0C383.638 2.8188e-07 407.044 4.65584 428.883 13.7017C450.722 22.7475 470.565 36.0062 487.279 52.7208C503.994 69.4353 517.253 89.2784 526.298 111.117C535.344 132.956 540 156.362 540 180C540 203.638 535.344 227.044 526.298 248.883C517.253 270.722 503.994 290.565 487.279 307.279C470.565 323.994 450.722 337.252 428.883 346.298C407.044 355.344 383.638 360 360 360L360 180C388.726 177.929 402.955 172.199 424.5 152.5C434.381 141.825 438.872 134.712 445 120C449.352 104.805 450.412 96.4747 449.5 82C446.786 56.0756 439.256 42.1808 419 22.5C398.564 7.11797 386.3 1.58802 360 0Z" fill="#eeb5eb"/>
<circle cx="360.5" cy="273.5" r="22.5" fill="white"/>
</svg>
